# xmcd CD database file
#
# Track frame offsets:
#	150
#	21425
#	37831
#	54887
#	68553
#	83942
#	111383
#	133795
#	151288
#	167893
#	182855
#	199894
#	216709
#	237693
#	256451
#	271468
#
# Disc length: 3883 seconds
#
# Revision: 0
# Processed by: cddbd v1.5.2PL0 Copyright (c) Steve Scherf et al.
# Submitted via: CDex 1.70beta2
#
DISCID=f30f2910
DTITLE=多数 - 最新アニメ＆スーパーヒーローソング　ベストコレクション
DYEAR=1900
DGENRE=アニメーション
TTITLE0=獣拳戦隊ゲキレンジャー
TTITLE1=道（タオ）
TTITLE2=ぷるるんっ！しずくちゃん
TTITLE3=しずくの森からこんにちは
TTITLE4=風の少女
TTITLE5=風のそらみみ
TTITLE6=ウルトラマンメビウス
TTITLE7=ティアドロップ
TTITLE8=祝（ハピ☆ラキ）ビックリマン
TTITLE9=あっちの世界はほっちっち
TTITLE10=パッタ ポッタ モン太のうた
TTITLE11=Ｈｅｌｌｏ！リカちゃん
TTITLE12=轟轟戦隊ボウケンジャー
TTITLE13=冒険者 ＯＮ ＴＨＥ ＲＯＡＤ
TTITLE14=ＣＨＡ-ＬＡ ＨＥＡＤ-ＣＨＡ-ＬＡ
TTITLE15=はじめてのチュウ
EXTD=
EXTT0=
EXTT1=
EXTT2=
EXTT3=
EXTT4=
EXTT5=
EXTT6=
EXTT7=
EXTT8=
EXTT9=
EXTT10=
EXTT11=
EXTT12=
EXTT13=
EXTT14=
EXTT15=
PLAYORDER=
